<?xml version="1.0" encoding="UTF-8" standalone="no"?>
<svg
   viewBox="0 0 24 24"
   version="1.1"
   id="svg10"
   sodipodi:docname="link-hover.svg"
   width="24"
   height="24"
   inkscape:version="1.1.2 (0a00cf5, 2022-02-04)"
   xmlns:inkscape="http://www.inkscape.org/namespaces/inkscape"
   xmlns:sodipodi="http://sodipodi.sourceforge.net/DTD/sodipodi-0.dtd"
   xmlns="http://www.w3.org/2000/svg"
   xmlns:svg="http://www.w3.org/2000/svg">
  <defs
     id="defs14" />
  <sodipodi:namedview
     id="namedview12"
     pagecolor="#ffffff"
     bordercolor="#666666"
     borderopacity="1.0"
     inkscape:pageshadow="2"
     inkscape:pageopacity="0.0"
     inkscape:pagecheckerboard="0"
     showgrid="false"
     width="25px"
     inkscape:zoom="36.291667"
     inkscape:cx="11.586682"
     inkscape:cy="11.614236"
     inkscape:window-width="1536"
     inkscape:window-height="1056"
     inkscape:window-x="0"
     inkscape:window-y="24"
     inkscape:window-maximized="1"
     inkscape:current-layer="layer1" />
  <g
     inkscape:groupmode="layer"
     id="layer1"
     inkscape:label="BackCircle"
     style="display:inline">
    <circle
       style="fill:#fff5e4;stroke-width:1.22571;fill-opacity:1"
       id="path38"
       cx="12"
       cy="12"
       r="12" />
  </g>
  <g
     inkscape:groupmode="layer"
     id="layer2"
     inkscape:label="Icon"
     style="display:inline">
    <path
       d="M 12.28,17.399994 11,18.669993 a 4.2,4.1999982 0 0 1 -5.5800001,0.4 4,3.9999984 0 0 1 -0.27,-5.929997 l 1.42,-1.43 a 1,0.9999996 0 0 0 0,-1.419999 1,0.9999996 0 0 0 -1.42,0 l -1.27,1.279999 a 6.15,6.1499976 0 0 0 -0.67,8.069997 6.06,6.0599975 0 0 0 9.0700001,0.6 l 1.42,-1.42 A 1.0040916,1.0040912 0 0 0 12.28,17.399994 Z M 19.66,3.2199995 a 6.18,6.1799975 0 0 0 -8.13,0.6799997 l -1.08,1.0999995 a 1.09,1.0899996 0 0 0 -0.17,1.6099995 1,0.9999996 0 0 0 1.42,0 L 13,5.2999986 a 4.17,4.1699983 0 0 1 5.57,-0.3999997 4,3.9999984 0 0 1 0.27,5.9499971 l -1.42,1.43 a 1,0.9999996 0 0 0 0,1.419999 1,0.9999996 0 0 0 1.42,0 l 1.42,-1.419999 a 6.06,6.0599975 0 0 0 -0.6,-9.0599965 z"
       id="path4"
       style="fill:#ee6983;fill-opacity:0.98624098;stroke-width:1" />
    <g
       data-name="Layer 2"
       id="g8"
       style="fill:#ee6983;fill-opacity:0.98624098">
      <g
         data-name="link-2"
         id="g6"
         style="fill:#ee6983;fill-opacity:0.98624098">
        <path
           d="m 13.29,9.29 -4,4 a 1,1 0 0 0 0,1.42 1,1 0 0 0 1.42,0 l 4,-4 A 1.0040916,1.0040916 0 0 0 13.29,9.29 Z"
           id="path2"
           style="fill:#ee6983;fill-opacity:0.98624098" />
      </g>
    </g>
  </g>
</svg>
